<svg width="18" height="17" viewBox="0 0 18 17" fill="none" xmlns="http://www.w3.org/2000/svg">
<path d="M17.5391 6.64846C17.4745 6.44356 17.3502 6.26264 17.182 6.12899C17.0138 5.99533 16.8095 5.91505 16.5953 5.89846L11.95 5.4969C11.9219 5.49414 11.8951 5.48382 11.8724 5.46704C11.8497 5.45025 11.832 5.42764 11.8211 5.40159L10.0063 1.07659C9.9222 0.879287 9.78201 0.711049 9.6031 0.592797C9.42419 0.474546 9.21446 0.411499 9 0.411499C8.78555 0.411499 8.57582 0.474546 8.39691 0.592797C8.218 0.711049 8.0778 0.879287 7.99375 1.07659L6.17891 5.40159C6.16804 5.42764 6.15031 5.45025 6.12761 5.46704C6.10492 5.48382 6.0781 5.49414 6.05 5.4969L1.40469 5.89846C1.19051 5.91505 0.986183 5.99533 0.818 6.12899C0.649816 6.26264 0.525465 6.44356 0.460941 6.64846C0.392605 6.85366 0.386636 7.07451 0.443788 7.28309C0.500941 7.49168 0.618649 7.67864 0.782035 7.82034L4.30625 10.8946C4.32783 10.9137 4.34386 10.9383 4.35266 10.9658C4.36145 10.9933 4.3627 11.0227 4.35625 11.0508L3.29688 15.6219C3.2475 15.8324 3.26158 16.0527 3.33737 16.2552C3.41315 16.4576 3.54722 16.6331 3.72266 16.7594C3.89537 16.8868 4.10233 16.9596 4.31679 16.9682C4.53126 16.9768 4.74338 16.921 4.92579 16.8078L8.91875 14.386C8.94222 14.3714 8.96928 14.3637 8.99688 14.3637C9.02448 14.3637 9.05154 14.3714 9.075 14.386L13.068 16.8078C13.2523 16.9207 13.4659 16.9764 13.6818 16.9679C13.8977 16.9595 14.1063 16.8873 14.2812 16.7604C14.4562 16.6336 14.5896 16.4577 14.6647 16.2551C14.7398 16.0525 14.7531 15.8321 14.7031 15.6219L13.6469 11.0492C13.6404 11.0211 13.6417 10.9918 13.6505 10.9643C13.6593 10.9368 13.6753 10.9122 13.6969 10.893L17.2211 7.81878C17.3836 7.67683 17.5006 7.48997 17.5571 7.28172C17.6137 7.07348 17.6074 6.85315 17.5391 6.64846ZM16.6016 7.11096L13.0773 10.1852C12.9272 10.3158 12.8155 10.485 12.7544 10.6744C12.6933 10.8639 12.685 11.0664 12.7305 11.2602L13.7867 15.8328C13.7945 15.8636 13.7928 15.8959 13.7818 15.9257C13.7708 15.9554 13.751 15.981 13.725 15.9992C13.7015 16.0181 13.6726 16.0289 13.6426 16.0301C13.6125 16.0314 13.5828 16.023 13.5578 16.0063L9.56485 13.5844C9.39461 13.4809 9.19922 13.4262 9 13.4262C8.80079 13.4262 8.6054 13.4809 8.43516 13.5844L4.44219 16.0063C4.4172 16.023 4.38751 16.0314 4.35745 16.0301C4.32738 16.0289 4.2985 16.0181 4.275 15.9992C4.24905 15.981 4.22925 15.9554 4.21822 15.9257C4.2072 15.8959 4.20548 15.8636 4.21329 15.8328L5.26954 11.2602C5.31501 11.0664 5.30674 10.8639 5.24561 10.6744C5.18449 10.485 5.07282 10.3158 4.92266 10.1852L1.39844 7.11096C1.37434 7.09047 1.35703 7.06313 1.3488 7.03258C1.34057 7.00203 1.3418 6.9697 1.35235 6.93987C1.36024 6.91016 1.37734 6.88372 1.40121 6.86435C1.42507 6.84498 1.45447 6.83367 1.48516 6.83206L6.13125 6.43049C6.33016 6.41355 6.52063 6.34249 6.68203 6.22502C6.84343 6.10755 6.9696 5.94815 7.04688 5.76409L8.86172 1.43909C8.87434 1.41225 8.89434 1.38955 8.91938 1.37365C8.94442 1.35775 8.97347 1.34931 9.00313 1.34931C9.03279 1.34931 9.06184 1.35775 9.08688 1.37365C9.11192 1.38955 9.13192 1.41225 9.14454 1.43909L10.9531 5.76409C11.0302 5.94771 11.1559 6.10681 11.3167 6.22425C11.4775 6.34169 11.6673 6.413 11.8656 6.43049L16.5117 6.83206C16.5424 6.83367 16.5718 6.84498 16.5957 6.86435C16.6195 6.88372 16.6366 6.91016 16.6445 6.93987C16.6554 6.9694 16.6572 7.00153 16.6495 7.03206C16.6418 7.06259 16.6251 7.09009 16.6016 7.11096Z" fill="#1C1C1C"/>
</svg>
